<svg xmlns="http://www.w3.org/2000/svg" viewBox="0 0 800 220" width="100%" height="220">
  <defs>
    <!-- Futuristic Neon Gradient -->
    <linearGradient id="text-grad" x1="0%" y1="0%" x2="100%" y2="0%">
      <stop offset="0%" stop-color="#00f0ff" />
      <stop offset="50%" stop-color="#bd00ff" />
      <stop offset="100%" stop-color="#ff007f" />
    </linearGradient>
  </defs>

  <style>
    <![CDATA[
    /* CSS Styles & Animations */
    /* 8-bit text jump animation with neon cyber glow */
    .pixel-letter {
      fill: url(#text-grad);
      filter: drop-shadow(0px 0px 8px rgba(0, 240, 255, 0.8)) drop-shadow(0px 0px 15px rgba(189, 0, 255, 0.5));
      animation: letter-jump 1.2s steps(2) infinite;
    }

    @keyframes letter-jump {
      0%, 100% { transform: translateY(0px); }
      50% { transform: translateY(-6px); }
    }

    /* Continuous idle animations */
    @keyframes idle-tail-wag {
      0%, 100% { transform: rotate(0deg); }
      50% { transform: rotate(15deg); }
    }

    @keyframes idle-breath {
      0%, 100% { transform: translateY(0px); }
      50% { transform: translateY(-2px); }
    }

    /* Static layout positions with 8-bit idle animation overrides */
    .left-cat-container {
      transform: translate(200px, 80px);
    }

    .right-cat-container {
      transform: translate(550px, 80px);
    }

    .cat-breath {
      animation: idle-breath 3s steps(4) infinite;
    }

    .tail-left {
      transform-origin: 2px 12px;
      animation: idle-tail-wag 1.6s steps(4) infinite;
    }

    .tail-right {
      transform-origin: 13px 12px;
      animation: idle-tail-wag 1.4s steps(4) infinite;
    }
    ]]>
  </style>

  <!-- ================= 8-BIT TEXT WAVE (NEKO-SAN) ================= -->
  <g transform="translate(0, 85)" shape-rendering="crispEdges">
    <!-- N (X = 265) -->
    <path class="pixel-letter" style="animation-delay: 0.0s;" d="M265,0 h5 v35 h-5 z M270,5 h5 v5 h-5 z M275,10 h5 v5 h-5 z M280,15 h5 v5 h-5 z M285,0 h5 v35 h-5 z" />
    
    <!-- E (X = 300) -->
    <path class="pixel-letter" style="animation-delay: 0.15s;" d="M300,0 h25 v5 h-25 z M300,5 h5 v25 h-5 z M300,15 h20 v5 h-20 z M300,30 h25 v5 h-25 z" />
    
    <!-- K (X = 335) -->
    <path class="pixel-letter" style="animation-delay: 0.3s;" d="M335,0 h5 v35 h-5 z M355,0 h5 v10 h-5 z M350,10 h5 v5 h-5 z M345,15 h5 v5 h-5 z M340,20 h5 v5 h-5 z M345,25 h5 v5 h-5 z M350,30 h10 v5 h-10 z" />
    
    <!-- O (X = 370) -->
    <path class="pixel-letter" style="animation-delay: 0.45s;" d="M375,0 h15 v5 h-15 z M370,5 h5 v25 h-5 z M390,5 h5 v25 h-5 z M375,30 h15 v5 h-15 z" />
    
    <!-- - (X = 405) -->
    <path class="pixel-letter" style="animation-delay: 0.6s;" d="M405,15 h25 v5 h-25 z" />
    
    <!-- S (X = 440) -->
    <path class="pixel-letter" style="animation-delay: 0.75s;" d="M445,0 h20 v5 h-20 z M440,5 h5 v10 h-5 z M445,15 h15 v5 h-15 z M460,20 h5 v10 h-5 z M440,30 h20 v5 h-20 z" />
    
    <!-- A (X = 475) -->
    <path class="pixel-letter" style="animation-delay: 0.9s;" d="M480,0 h15 v5 h-15 z M475,5 h5 v30 h-5 z M495,5 h5 v30 h-5 z M480,15 h15 v5 h-15 z" />
    
    <!-- N (X = 510) -->
    <path class="pixel-letter" style="animation-delay: 1.05s;" d="M510,0 h5 v35 h-5 z M515,5 h5 v5 h-5 z M520,10 h5 v5 h-5 z M525,15 h5 v5 h-5 z M530,0 h5 v35 h-5 z" />
  </g>

  <!-- ================= LEFT CAT (Cyber-Blue Theme) ================= -->
  <g class="left-cat-container">
    <g class="cat-wobble">
      <g class="cat-breath" style="animation-delay: 0.2s;">
        <g transform="scale(3)" shape-rendering="crispEdges">
          <!-- Tail -->
          <g class="tail-left">
            <rect x="1" y="11" width="1" height="2" fill="#1f2335" />
            <rect x="0" y="9" width="1" height="2" fill="#1f2335" />
            <rect x="1" y="8" width="1" height="1" fill="#1f2335" />
          </g>
          <!-- Body/Head -->
          <rect x="2" y="1" width="1" height="2" fill="#1f2335" />
          <rect x="3" y="2" width="1" height="2" fill="#ff007f" />
          <rect x="4" y="2" width="1" height="2" fill="#1f2335" />
          <rect x="12" y="1" width="1" height="2" fill="#1f2335" />
          <rect x="11" y="2" width="1" height="2" fill="#ff007f" />
          <rect x="10" y="2" width="1" height="2" fill="#1f2335" />
          <rect x="3" y="4" width="9" height="1" fill="#1f2335" />
          <rect x="2" y="5" width="11" height="3" fill="#1f2335" />
          <!-- Neon Cyan Eyes with Blinking -->
          <rect x="4" y="6" width="1" height="1" fill="#00f0ff">
            <animate attributeName="height" values="1;1;0.1;1;1" dur="4s" repeatCount="indefinite" keyTimes="0;0.9;0.93;0.96;1" />
            <animate attributeName="y" values="6;6;6.45;6;6" dur="4s" repeatCount="indefinite" keyTimes="0;0.9;0.93;0.96;1" />
          </rect>
          <rect x="10" y="6" width="1" height="1" fill="#00f0ff">
            <animate attributeName="height" values="1;1;0.1;1;1" dur="4s" repeatCount="indefinite" keyTimes="0;0.9;0.93;0.96;1" />
            <animate attributeName="y" values="6;6;6.45;6;6" dur="4s" repeatCount="indefinite" keyTimes="0;0.9;0.93;0.96;1" />
          </rect>
          <!-- Cheeks -->
          <rect x="3" y="7" width="1" height="1" fill="#7aa2f7" />
          <rect x="11" y="7" width="1" height="1" fill="#7aa2f7" />
          <!-- Nose & Mouth -->
          <rect x="7" y="7" width="1" height="1" fill="#ff007f" />
          <!-- Body -->
          <rect x="3" y="8" width="9" height="6" fill="#1f2335" />
          <!-- Paws -->
          <rect x="4" y="14" width="2" height="1" fill="#00f0ff" />
          <rect x="9" y="14" width="2" height="1" fill="#00f0ff" />
        </g>
      </g>
    </g>
  </g>

  <!-- ================= RIGHT CAT (Neon Pink Cyber-Calico) ================= -->
  <g class="right-cat-container">
    <g class="cat-wobble" style="animation-delay: 0.1s;">
      <g class="cat-breath" style="animation-delay: 0.5s;">
        <g transform="scale(3)" shape-rendering="crispEdges">
          <!-- Tail -->
          <g class="tail-right">
            <rect x="13" y="11" width="1" height="2" fill="#ff007f" />
            <rect x="14" y="9" width="1" height="2" fill="#ff007f" />
            <rect x="13" y="8" width="1" height="1" fill="#ff007f" />
          </g>
          <!-- Body/Head -->
          <rect x="2" y="1" width="1" height="2" fill="#ff007f" />
          <rect x="3" y="2" width="1" height="2" fill="#00f0ff" />
          <rect x="4" y="2" width="1" height="2" fill="#ff007f" />
          <rect x="12" y="1" width="1" height="2" fill="#ff007f" />
          <rect x="11" y="2" width="1" height="2" fill="#00f0ff" />
          <rect x="10" y="2" width="1" height="2" fill="#ff007f" />
          <rect x="3" y="4" width="5" height="1" fill="#ff007f" />
          <rect x="8" y="4" width="3" height="1" fill="#00f0ff" /> <!-- Neon Cyan Spot -->
          <rect x="2" y="5" width="6" height="1" fill="#ff007f" />
          <rect x="8" y="5" width="4" height="1" fill="#00f0ff" /> <!-- Neon Cyan Spot -->
          <rect x="12" y="5" width="1" height="1" fill="#ff007f" />
          <rect x="2" y="6" width="11" height="1" fill="#ff007f" />
          <!-- Neon Cyan Eyes with Blinking -->
          <rect x="4" y="6" width="1" height="1" fill="#00f0ff">
            <animate attributeName="height" values="1;1;0.1;1;1" dur="4s" repeatCount="indefinite" keyTimes="0;0.9;0.93;0.96;1" />
            <animate attributeName="y" values="6;6;6.45;6;6" dur="4s" repeatCount="indefinite" keyTimes="0;0.9;0.93;0.96;1" />
          </rect>
          <rect x="10" y="6" width="1" height="1" fill="#00f0ff">
            <animate attributeName="height" values="1;1;0.1;1;1" dur="4s" repeatCount="indefinite" keyTimes="0;0.9;0.93;0.96;1" />
            <animate attributeName="y" values="6;6;6.45;6;6" dur="4s" repeatCount="indefinite" keyTimes="0;0.9;0.93;0.96;1" />
          </rect>
          <!-- Cheeks -->
          <rect x="3" y="7" width="1" height="1" fill="#fafafa" />
          <rect x="11" y="7" width="1" height="1" fill="#fafafa" />
          <!-- Nose & Mouth -->
          <rect x="7" y="7" width="1" height="1" fill="#00f0ff" />
          <!-- Body -->
          <rect x="3" y="8" width="9" height="1" fill="#ff007f" />
          <rect x="3" y="9" width="2" height="1" fill="#1f2335" /> <!-- Cyber Dark Spot -->
          <rect x="5" y="9" width="7" height="1" fill="#ff007f" />
          <rect x="3" y="10" width="3" height="1" fill="#1f2335" /> <!-- Cyber Dark Spot -->
          <rect x="6" y="10" width="6" height="1" fill="#ff007f" />
          <rect x="3" y="11" width="9" height="3" fill="#ff007f" />
          <!-- Paws -->
          <rect x="4" y="14" width="2" height="1" fill="#fafafa" />
          <rect x="9" y="14" width="2" height="1" fill="#fafafa" />
        </g>
      </g>
    </g>
  </g>
</svg>
